<?xml version="1.0" encoding="UTF-8"?>
<svg xmlns="http://www.w3.org/2000/svg" version="1" viewBox="0 0 24 24" enable-background="new 0 0 24 24">
    <path d="M 2 2 L 2 4 L 4.28125 4 L 6.90625 11.8125 L 5.40625 13.8125 L 5.375 13.8125 C 4.9155448 14.455737 4.8951058 15.315107 5.21875 15.9375 C 5.5423942 16.559893 6.225 17 7 17 L 20 17 L 20 15 L 7 15 C 7.0020068 14.994613 6.9898637 14.98294 7 14.96875 L 8.5 13 L 17.90625 13 C 18.30625 13 18.7125 12.80625 18.8125 12.40625 L 21.90625 5.40625 C 22.20625 4.70625 21.7 4 21 4 L 6.375 4 L 5.9375 2.6875 L 5.71875 2 L 5 2 L 2 2 z M 7 18 C 5.8954305 18 5 18.895431 5 20 C 5 21.104569 5.8954305 22 7 22 C 8.1045695 22 9 21.104569 9 20 C 9 18.895431 8.1045695 18 7 18 z M 18 18 C 16.895431 18 16 18.895431 16 20 C 16 21.104569 16.895431 22 18 22 C 19.104569 22 20 21.104569 20 20 C 20 18.895431 19.104569 18 18 18 z"/>
</svg>